<svg width="93" height="58" fill="none" xmlns="http://www.w3.org/2000/svg"><path d="M87.681 14.829l-.431-.045.208-2 .431.045-.208 2zm3.766-1.525l-4-.416.055-.53 4 .416-.055.53zm-3.463 9.369l-.244-.07a2.696 2.696 0 01-.75-.332 1.758 1.758 0 01-.496-.482 1.413 1.413 0 01-.229-.597 1.603 1.603 0 01.056-.674 1.482 1.482 0 01.818-.981c.201-.091.427-.142.68-.153.251-.01.522.027.813.11l.244.07c.29.083.539.195.746.335.208.142.373.305.495.49.123.184.2.383.23.597.03.216.013.438-.053.666-.067.235-.17.436-.31.6-.14.168-.31.296-.512.385a1.72 1.72 0 01-.678.148c-.25.009-.52-.028-.81-.112zm-.099-.577l.25.072c.23.066.44.1.631.103.19.005.359-.02.505-.076a.917.917 0 00.368-.254c.1-.111.173-.25.22-.414.046-.16.056-.312.031-.46a.953.953 0 00-.179-.407 1.392 1.392 0 00-.386-.338c-.163-.1-.36-.183-.59-.25l-.249-.07a2.405 2.405 0 00-.637-.103 1.39 1.39 0 00-.51.084.977.977 0 00-.368.253 1.028 1.028 0 00-.218.406 1.063 1.063 0 00-.034.47.9.9 0 00.18.405c.096.126.226.237.39.334.166.097.364.179.596.245zm.039 6.682l-3.61-1.77.234-.48 3.611 1.771-.235.479zm-2.366.716l-.392-.192.793-1.617.392.192-.793 1.617zm1.504 1.042l-.392-.192.913-1.863.392.192-.913 1.863zm-3.142 5.61l-3.274-2.337.305-.427 3.273 2.337-.305.427zm-.752 1.052l-.355-.254 1.805-2.529.356.254-1.806 2.529zm-7.148 8.04l-2.476-3.17.42-.328 2.475 3.17-.42.328zm-2.442-.389l-.269-.344 1.42-1.108.268.344-1.42 1.108zm.898 1.595l-.269-.345 1.635-1.276.269.344-1.635 1.276zm-6.016 4.078l-.468.25-1.288-2.396c-.143-.266-.203-.52-.18-.76.024-.24.11-.458.258-.652.148-.192.336-.35.565-.473.24-.129.48-.202.723-.219.24-.014.465.036.674.152.207.117.382.308.525.574l1.287 2.397-.464.25-1.288-2.397c-.1-.185-.215-.32-.348-.403a.726.726 0 00-.429-.114 1.125 1.125 0 00-.475.142c-.164.088-.29.194-.381.318a.723.723 0 00-.143.422c-.004.156.044.327.143.512l1.288 2.397zm-5.052 2.572l-1.265.414c-.287.094-.544.13-.77.107a1.016 1.016 0 01-.581-.24 1.232 1.232 0 01-.364-.575 1.125 1.125 0 01-.05-.516c.024-.166.085-.322.185-.467.098-.143.232-.269.4-.378l.123-.102 1.19-.39.14.411-.898.294c-.182.06-.323.141-.424.243a.7.7 0 00-.187.35.757.757 0 00.026.39.865.865 0 00.212.357.609.609 0 00.357.165c.142.021.31 0 .505-.063l.759-.249-1.116-3.407.507-.166 1.251 3.822zm-3.486-3.09l1.497 1.428-.526.175-1.5-1.395-.011-.031.54-.177zm-7.192 5.889l-.544-3.985.531-.072 2.426 2.8-.42-3.074.529-.072.543 3.985-.528.072-2.435-2.807.42 3.082-.522.071zm-5.924.499l.1-4.02.532.013-.099 4.02-.533-.013zm-6.898-.443l.693-3.962.517.09-.693 3.962-.517-.09zm-1.273-.222l.075-.43 3.061.535-.075.43-3.061-.535zm-6.778-1.689l-.499-.179.919-2.56c.102-.285.25-.499.444-.642a1.26 1.26 0 01.657-.246c.242-.019.485.015.73.103.256.092.471.222.646.39.172.17.285.37.338.603.052.232.027.49-.075.774l-.919 2.561-.496-.178.919-2.56c.07-.198.092-.374.066-.529a.726.726 0 00-.202-.395c-.11-.11-.25-.196-.424-.258a1.112 1.112 0 00-.491-.07.723.723 0 00-.41.176 1.042 1.042 0 00-.284.45l-.919 2.56zm-5.274-2.025l-1.156-.66a1.888 1.888 0 01-.596-.5 1.015 1.015 0 01-.212-.592c-.008-.21.054-.428.183-.656.092-.16.208-.287.35-.382a1.06 1.06 0 01.47-.177 1.41 1.41 0 01.548.043l.158.023 1.087.621-.21.38-.821-.47a1.027 1.027 0 00-.464-.15.7.7 0 00-.385.095.756.756 0 00-.272.28.862.862 0 00-.122.398.608.608 0 00.116.376c.08.12.209.23.386.332l.693.396 1.78-3.113.462.264-1.995 3.492zm-.046-4.658l-.055 2.068-.484-.273.028-2.049.017-.029.494.283zm-6.475-3.807l.277-.334 1.64 1.357-.276.334-1.64-1.357zm-.729 4.053l2.564-3.098.41.34-2.563 3.098-.41-.34zm-.238-2.441l.276-.334 1.424 1.178-.277.334-1.424-1.178zm-1.298 1.17l.278-.336 1.62 1.34-.279.336-1.62-1.34zm-6.088-10.838a.652.652 0 00-.182.176.473.473 0 00-.081.235 1.17 1.17 0 00.024.337c.025.132.067.292.128.48.062.198.108.384.138.557.03.174.036.334.022.481a.992.992 0 01-.12.399.921.921 0 01-.295.309.979.979 0 01-.855.126 1.338 1.338 0 01-.435-.23 1.786 1.786 0 01-.382-.418 1.568 1.568 0 01-.285-.734c-.024-.24.01-.457.102-.652.091-.195.224-.35.398-.468l.296.44a.811.811 0 00-.278.303.666.666 0 00-.065.398c.017.146.081.303.194.469.106.157.217.271.334.341a.62.62 0 00.346.1.635.635 0 00.327-.114.513.513 0 00.163-.174.621.621 0 00.064-.246 1.348 1.348 0 00-.03-.334 3.755 3.755 0 00-.12-.435 3.739 3.739 0 01-.152-.61 1.62 1.62 0 01-.006-.49.916.916 0 01.142-.385 1.05 1.05 0 01.303-.302.982.982 0 01.425-.166.966.966 0 01.44.046c.147.05.29.132.43.246.137.114.265.26.383.435.104.154.185.32.244.499.057.177.084.355.08.535a1.216 1.216 0 01-.119.504 1.05 1.05 0 01-.367.404l-.296-.44a.744.744 0 00.25-.265.708.708 0 00.08-.317c0-.114-.02-.229-.06-.344a1.548 1.548 0 00-.171-.334 1.274 1.274 0 00-.329-.348.626.626 0 00-.347-.119.571.571 0 00-.338.105zm-4.906-5.916l.397-.175.88 1.99-.396.175-.881-1.99zm-.733 2.615l3.677-1.629.216.488-3.677 1.628-.216-.487zm-1.036-2.34l3.677-1.627.215.484-3.677 1.629-.215-.485zm-.918-8.375l.248-.058a2.69 2.69 0 01.816-.076c.25.02.473.078.669.178.196.1.36.236.49.41.132.171.225.376.281.615.055.23.062.453.021.667a1.472 1.472 0 01-.256.588c-.13.178-.303.334-.518.465-.215.132-.47.233-.763.302l-.248.058a2.608 2.608 0 01-.814.072 1.788 1.788 0 01-.67-.185 1.43 1.43 0 01-.494-.41 1.594 1.594 0 01-.279-.606 1.602 1.602 0 01-.023-.676 1.4 1.4 0 01.26-.586 1.72 1.72 0 01.519-.46c.213-.13.467-.229.761-.298zm.368.456l-.252.059a2.448 2.448 0 00-.602.218 1.32 1.32 0 00-.403.313.918.918 0 00-.198.402c-.032.145-.028.301.011.468.038.161.104.3.197.416a.953.953 0 00.355.268c.144.063.311.099.502.107a2.36 2.36 0 00.636-.07l.253-.06c.235-.055.437-.129.606-.222.168-.092.302-.2.404-.322a.978.978 0 00.198-.4c.032-.147.029-.3-.009-.461a1.055 1.055 0 00-.2-.427.901.901 0 00-.354-.266 1.345 1.345 0 00-.503-.1 2.579 2.579 0 00-.64.077zM3.57 15.06l.053 1.074-.433.02-.053-1.072a1.107 1.107 0 00-.124-.5.62.62 0 00-.29-.268.866.866 0 00-.407-.072.859.859 0 00-.385.11.673.673 0 00-.278.296.993.993 0 00-.088.51l.046.95 3.581-.176.026.533-4.017.197-.072-1.482a1.711 1.711 0 01.12-.777c.094-.215.231-.381.412-.499.178-.117.386-.182.623-.194.258-.012.48.031.668.13.187.1.334.252.44.457.104.206.163.46.178.763zm1.273-8.493l.43.045-.207 2-.432-.045.209-2zM1.076 8.092l4 .416-.055.53-4-.416.055-.53zm3.464-9.37l.244.07c.29.084.54.195.75.333.208.139.374.3.496.482s.198.381.228.597c.03.214.012.438-.055.674a1.594 1.594 0 01-.308.593c-.14.165-.31.294-.51.388a1.83 1.83 0 01-.68.153 2.58 2.58 0 01-.813-.11l-.244-.07a2.61 2.61 0 01-.746-.335 1.789 1.789 0 01-.495-.49 1.432 1.432 0 01-.23-.597 1.594 1.594 0 01.052-.666c.068-.236.171-.436.31-.6a1.4 1.4 0 01.513-.385c.2-.092.426-.142.677-.148.25-.009.52.028.81.111zm.098.578l-.25-.072a2.44 2.44 0 00-.63-.103c-.19-.005-.36.02-.505.076a.917.917 0 00-.369.254c-.1.111-.172.25-.22.414a.953.953 0 00.148.867c.095.125.224.237.386.338.163.1.36.183.59.25l.25.07c.231.067.444.101.637.103a1.39 1.39 0 00.51-.084.977.977 0 00.368-.253c.099-.112.171-.247.217-.406.048-.167.06-.323.034-.47a.9.9 0 00-.18-.405 1.347 1.347 0 00-.39-.334A2.581 2.581 0 004.638-.7zm83.769.62l-.247.058a2.69 2.69 0 01-.817.075 1.744 1.744 0 01-.668-.177c-.196-.1-.36-.236-.491-.41a1.6 1.6 0 01-.28-.615 1.594 1.594 0 01-.022-.667c.041-.212.127-.408.256-.588a1.79 1.79 0 01.518-.465 2.58 2.58 0 01.764-.302l.247-.058a2.61 2.61 0 01.814-.072c.252.022.475.084.671.185.198.101.362.238.494.41.131.173.224.375.278.606a1.6 1.6 0 01.023.676 1.4 1.4 0 01-.26.586c-.13.178-.303.331-.518.46a2.61 2.61 0 01-.762.298zm-.368-.456l.253-.06c.233-.054.433-.127.601-.217.169-.089.303-.193.403-.313.1-.12.167-.254.198-.402a1.047 1.047 0 00-.01-.468 1.028 1.028 0 00-.198-.416.954.954 0 00-.355-.269 1.39 1.39 0 00-.502-.106 2.363 2.363 0 00-.636.07l-.253.06a2.396 2.396 0 00-.606.222 1.39 1.39 0 00-.404.322.978.978 0 00-.198.4c-.031.146-.028.3.01.461.039.169.106.311.2.427a.9.9 0 00.354.266c.145.062.313.096.503.1.192.004.405-.021.64-.077zm.915 6.872L88.9 5.262l.433-.02.053 1.072c.01.208.051.375.124.5a.62.62 0 00.29.268c.12.055.256.079.407.071a.86.86 0 00.384-.11.673.673 0 00.279-.296.993.993 0 00.088-.51l-.046-.949-3.581.176-.027-.533 4.017-.197.073 1.482a1.71 1.71 0 01-.12.777 1.113 1.113 0 01-.412.499 1.221 1.221 0 01-.623.194 1.282 1.282 0 01-.668-.13 1.042 1.042 0 01-.44-.458 1.883 1.883 0 01-.178-.762z" fill="#fff"/></svg>