<svg width="148" height="150" fill="none" xmlns="http://www.w3.org/2000/svg"><path d="M140.252 81.305l-.69-.071.333-3.2.69.072-.333 3.2zm6.024-2.438l-6.398-.666.088-.848 6.399.666-.089.848zm-5.539 14.986l-.391-.112a4.301 4.301 0 01-1.198-.532 2.785 2.785 0 01-.795-.77 2.26 2.26 0 01-.365-.955 2.563 2.563 0 01.088-1.078c.105-.366.269-.682.493-.948.223-.264.495-.471.817-.621a2.863 2.863 0 011.086-.245 4.13 4.13 0 011.301.176l.391.112c.464.133.862.311 1.193.535.333.227.597.488.791.783.197.296.32.615.369.957.049.344.02.7-.084 1.065a2.561 2.561 0 01-.497.96 2.236 2.236 0 01-.82.616 2.75 2.75 0 01-1.083.236 4.16 4.16 0 01-1.296-.179zm-.158-.923l.399.115c.368.105.705.16 1.01.165.304.008.573-.033.807-.122.234-.09.431-.225.59-.406a1.66 1.66 0 00.351-.662c.073-.255.09-.5.05-.735a1.532 1.532 0 00-.286-.652c-.152-.2-.357-.38-.618-.54a3.758 3.758 0 00-.943-.4l-.399-.114a3.848 3.848 0 00-1.019-.164 2.22 2.22 0 00-.815.134c-.236.095-.433.23-.59.406a1.636 1.636 0 00-.347.65 1.675 1.675 0 00-.055.751c.04.235.135.451.287.648.154.2.362.378.624.533a4.1 4.1 0 00.954.393zm.063 10.688l-5.777-2.833.376-.765 5.776 2.832-.375.766zm-3.785 1.146l-.627-.308 1.268-2.586.627.307-1.268 2.587zm2.406 1.666l-.627-.307 1.461-2.979.626.307-1.46 2.979zm-5.028 8.973l-5.236-3.737.488-.684 5.236 3.738-.488.683zm-1.201 1.683l-.568-.406 2.888-4.045.568.405-2.888 4.046zm-11.435 12.861l-3.96-5.071.673-.525 3.959 5.071-.672.525zm-3.906-.622l-.429-.551 2.27-1.773.43.551-2.271 1.773zm1.437 2.55l-.43-.55 2.616-2.043.429.551-2.615 2.042zm-9.624 6.524l-.747.401-2.06-3.834c-.229-.425-.325-.83-.287-1.215.037-.384.175-.732.412-1.044.236-.307.537-.559.903-.756a2.854 2.854 0 011.156-.35 1.94 1.94 0 011.078.243c.331.187.611.493.84.918l2.06 3.834-.743.399-2.06-3.833c-.159-.296-.345-.511-.557-.644a1.16 1.16 0 00-.686-.184c-.247.013-.5.089-.76.228-.262.141-.465.31-.61.508a1.16 1.16 0 00-.229.675c-.006.251.071.524.23.82l2.06 3.834zm-8.079 4.114l-2.024.662c-.459.151-.87.208-1.232.171a1.623 1.623 0 01-.93-.383c-.257-.217-.45-.524-.58-.921a1.8 1.8 0 01-.08-.825 1.72 1.72 0 01.295-.747c.157-.229.37-.43.638-.605l.198-.162 1.903-.623.224.656-1.436.471c-.291.095-.517.225-.677.389a1.1 1.1 0 00-.3.558 1.21 1.21 0 00.04.624c.078.235.191.426.342.572.15.146.34.234.57.264.228.034.497 0 .808-.102l1.213-.398-1.785-5.45.81-.265 2.003 6.114zm-5.576-4.944l2.394 2.285-.842.28-2.4-2.231-.017-.051.865-.283zm-11.505 9.421l-.87-6.374.85-.116 3.88 4.479-.67-4.916.844-.116.87 6.375-.845.115-3.895-4.49.672 4.929-.836.114zm-9.475.799l.158-6.432.853.021-.158 6.432-.853-.021zm-11.034-.709l1.108-6.338.827.145-1.108 6.337-.827-.144zm-2.037-.356l.12-.688 4.897.856-.12.687-4.897-.855zm-10.84-2.701l-.8-.286 1.47-4.097c.163-.454.4-.797.71-1.026a2.01 2.01 0 011.052-.393c.387-.03.776.025 1.166.165.41.147.756.355 1.035.624.275.271.455.593.541.964.083.371.043.784-.12 1.239l-1.47 4.096-.794-.285 1.47-4.096c.113-.316.148-.598.105-.845a1.163 1.163 0 00-.322-.632 1.796 1.796 0 00-.679-.412 1.775 1.775 0 00-.785-.113 1.151 1.151 0 00-.655.282c-.19.163-.342.403-.455.719l-1.47 4.096zm-8.438-3.239l-1.849-1.057c-.42-.239-.737-.506-.953-.799a1.623 1.623 0 01-.34-.947c-.01-.335.087-.685.295-1.048.146-.256.332-.46.558-.612.222-.151.473-.246.752-.283a2.28 2.28 0 01.877.068l.253.038 1.738.993-.337.607-1.312-.75c-.266-.152-.513-.232-.742-.241a1.124 1.124 0 00-.616.152 1.21 1.21 0 00-.435.449 1.38 1.38 0 00-.195.636.97.97 0 00.186.6c.128.192.334.369.618.531l1.108.634 2.846-4.98.74.423-3.192 5.586zm-.073-7.451l-.088 3.308-.774-.437.046-3.277.026-.046.79.452zm-10.356-6.09l.442-.534 2.625 2.171-.442.535-2.625-2.172zm-1.167 6.485l4.101-4.958.657.544-4.1 4.957-.657-.543zm-.381-3.906l.442-.535 2.278 1.885-.443.534-2.277-1.884zm-2.077 1.872l.445-.538 2.591 2.143-.445.538-2.59-2.143zm-9.738-17.336a1.044 1.044 0 00-.29.281.759.759 0 00-.13.376 1.87 1.87 0 00.04.539c.039.211.107.468.203.768.1.317.174.613.222.89.046.278.058.535.035.771a1.587 1.587 0 01-.193.637 1.474 1.474 0 01-.472.494 1.564 1.564 0 01-1.366.203 2.136 2.136 0 01-.696-.368 2.848 2.848 0 01-.612-.669c-.27-.4-.422-.792-.456-1.174a1.95 1.95 0 01.164-1.044c.146-.311.357-.561.636-.748l.474.703c-.2.135-.348.297-.444.486a1.067 1.067 0 00-.104.636c.026.234.13.484.309.75.17.252.348.434.534.546a.987.987 0 00.555.159c.182-.009.356-.07.522-.182a.82.82 0 00.26-.277.99.99 0 00.102-.394 2.16 2.16 0 00-.046-.534 5.98 5.98 0 00-.192-.696 5.973 5.973 0 01-.244-.977 2.59 2.59 0 01-.01-.782 1.46 1.46 0 01.228-.617c.116-.182.277-.342.485-.482.217-.147.443-.236.678-.266.236-.031.47-.007.706.073.235.079.464.211.687.394a3.3 3.3 0 01.613.695c.166.247.296.513.39.798.09.283.134.568.13.856a1.953 1.953 0 01-.192.806 1.691 1.691 0 01-.587.647l-.475-.703a1.19 1.19 0 00.4-.425c.082-.158.125-.327.128-.507a1.627 1.627 0 00-.094-.55 2.486 2.486 0 00-.275-.534 2.05 2.05 0 00-.525-.557.998.998 0 00-.555-.19.91.91 0 00-.542.168zm-7.846-9.463l.634-.281 1.41 3.183-.635.281-1.41-3.183zm-1.173 4.182l5.882-2.605.345.78-5.882 2.605-.345-.78zm-1.657-3.741l5.883-2.605.343.776-5.883 2.604-.343-.775zM6.586 91.938l.396-.093c.47-.11.905-.15 1.306-.12.4.03.757.124 1.07.284.313.159.574.377.785.655.21.274.36.602.449.983.087.37.098.726.033 1.068-.066.34-.202.653-.41.941a2.863 2.863 0 01-.828.744c-.344.21-.75.371-1.221.482l-.396.093c-.47.11-.904.15-1.303.116a2.862 2.862 0 01-1.073-.297 2.29 2.29 0 01-.789-.654 2.561 2.561 0 01-.446-.971 2.563 2.563 0 01-.036-1.081c.065-.342.203-.655.415-.938a2.75 2.75 0 01.83-.735 4.176 4.176 0 011.218-.477zm.589.729l-.404.095a3.908 3.908 0 00-.962.349c-.27.141-.485.309-.645.5a1.49 1.49 0 00-.317.642c-.05.233-.045.483.018.75.06.258.165.48.315.666.149.182.338.326.568.429.23.1.497.157.803.17a3.78 3.78 0 001.017-.112l.405-.096c.375-.088.699-.206.97-.355.267-.147.483-.319.645-.514a1.56 1.56 0 00.317-.642 1.644 1.644 0 00-.014-.737 1.687 1.687 0 00-.32-.683 1.442 1.442 0 00-.567-.425c-.232-.1-.5-.153-.805-.16a4.128 4.128 0 00-1.024.123zM5.713 81.676l.084 1.717-.693.034-.084-1.717c-.016-.332-.083-.6-.199-.8a.992.992 0 00-.463-.428 1.389 1.389 0 00-.652-.114c-.22.01-.425.07-.615.176a1.07 1.07 0 00-.445.473c-.11.212-.158.484-.142.817l.075 1.518 5.728-.282.042.852-6.425.316-.117-2.37c-.024-.486.04-.9.191-1.244a1.78 1.78 0 01.66-.798c.286-.188.618-.29.998-.31.412-.02.767.05 1.067.209.3.16.535.403.704.73.167.329.262.736.286 1.22zM7.748 68.09l.69.072-.333 3.2-.69-.072.333-3.2zm-6.024 2.44l6.399.666-.089.848-6.398-.666.088-.848zm5.539-14.988l.39.112a4.33 4.33 0 011.2.533c.334.221.6.478.795.77.195.292.316.61.365.955.049.342.02.701-.089 1.078a2.549 2.549 0 01-.492.948 2.353 2.353 0 01-.817.62 2.86 2.86 0 01-1.086.245 4.126 4.126 0 01-1.302-.175l-.39-.112a4.172 4.172 0 01-1.194-.535 2.86 2.86 0 01-.79-.784 2.29 2.29 0 01-.37-.956 2.55 2.55 0 01.085-1.065c.108-.376.273-.697.496-.96a2.24 2.24 0 01.82-.616 2.75 2.75 0 011.084-.236c.399-.014.83.045 1.295.178zm.158.924l-.399-.115a3.909 3.909 0 00-1.01-.165 2.107 2.107 0 00-.807.122c-.234.09-.43.224-.59.406a1.672 1.672 0 00-.35.662c-.074.255-.09.5-.05.735.04.232.135.45.286.652.15.2.357.38.617.54.26.16.575.294.943.4l.4.114c.37.106.71.16 1.019.163a2.23 2.23 0 00.815-.133 1.57 1.57 0 00.59-.406c.158-.178.274-.395.347-.65.076-.266.094-.516.055-.752a1.441 1.441 0 00-.288-.647 2.157 2.157 0 00-.624-.533 4.131 4.131 0 00-.954-.393zm-.062-10.688l5.776 2.833-.375.765-5.777-2.832.376-.766zm3.785-1.146l.627.308-1.269 2.586-.626-.307 1.268-2.587zm-2.406-1.667l.627.308-1.461 2.98-.627-.308 1.46-2.98zm5.027-8.972L19 37.73l-.488.684-5.236-3.738.488-.683zm1.201-1.683l.568.405-2.887 4.046-.569-.405 2.888-4.046zm11.435-12.861l3.96 5.07-.672.525-3.96-5.07.672-.525zm3.906.622l.43.55-2.271 1.774-.43-.55 2.271-1.774zm-1.436-2.55l.43.55-2.616 2.042-.43-.55 2.616-2.042zm9.624-6.524l.747-.401 2.06 3.833c.229.426.324.831.287 1.216a2.013 2.013 0 01-.413 1.044 2.78 2.78 0 01-.902.756c-.384.206-.77.323-1.157.35a1.938 1.938 0 01-1.078-.243c-.331-.187-.61-.493-.84-.918L35.14 12.8l.744-.4 2.06 3.834c.159.296.344.51.556.644.213.134.441.195.686.184.247-.013.5-.089.76-.228a1.77 1.77 0 00.61-.509c.147-.199.223-.424.23-.675.005-.25-.071-.523-.23-.82l-2.06-3.833zm8.078-4.114l2.024-.663c.46-.15.87-.207 1.232-.17.365.035.675.163.93.383.257.216.45.523.58.92.092.28.119.556.08.826a1.72 1.72 0 01-.294.747 2.26 2.26 0 01-.64.605l-.197.162-1.902.623-.225-.656 1.436-.47c.292-.096.517-.226.678-.39.159-.167.259-.353.3-.559a1.21 1.21 0 00-.042-.623 1.38 1.38 0 00-.34-.572.973.973 0 00-.57-.264c-.228-.034-.498 0-.808.102L47.6 7.28l1.785 5.45-.81.266-2.003-6.114zm5.576 4.944l-2.394-2.285.843-.28 2.4 2.231.016.05-.865.284zm11.505-9.422l.87 6.375-.85.116-3.88-4.48.671 4.917-.845.115-.87-6.374.846-.115 3.894 4.49-.672-4.93.836-.114zm9.475-.798l-.158 6.431-.853-.02.159-6.432.852.02zm11.034.709l-1.108 6.337-.827-.144 1.108-6.337.827.144zm2.037.356l-.12.688-4.897-.856.12-.688 4.897.856zm10.841 2.7l.799.287-1.47 4.096c-.163.455-.4.797-.71 1.027a2.02 2.02 0 01-1.052.393 2.778 2.778 0 01-1.166-.165 2.854 2.854 0 01-1.034-.624 1.937 1.937 0 01-.542-.965c-.082-.37-.042-.783.12-1.238l1.47-4.097.794.285-1.469 4.097c-.113.316-.149.598-.106.845s.15.457.323.632c.175.175.4.313.678.412.28.1.542.138.786.113a1.16 1.16 0 00.655-.282c.19-.163.341-.403.455-.719l1.47-4.097zm8.437 3.24l1.849 1.056c.42.24.737.506.953.8.219.294.332.61.339.947.012.335-.086.685-.293 1.048-.146.256-.333.46-.559.612a1.717 1.717 0 01-.752.283 2.257 2.257 0 01-.876-.069l-.254-.037-1.738-.993.337-.607 1.312.75c.266.152.513.232.743.24.23.007.435-.044.616-.151.18-.108.325-.257.434-.449.123-.215.188-.427.196-.636a.978.978 0 00-.187-.6c-.127-.192-.333-.37-.617-.531l-1.109-.634-2.845 4.98-.741-.423 3.192-5.586zm.073 7.451l.089-3.308.773.437-.045 3.277-.027.046-.79-.452zm10.357 6.089l-.442.535-2.625-2.171.442-.535 2.625 2.171zm1.166-6.484l-4.101 4.957-.657-.543 4.101-4.957.657.543zm.382 3.906l-.442.534-2.278-1.884.442-.534 2.278 1.884zm2.076-1.872l-.445.538-2.591-2.144.445-.537 2.591 2.143zm9.738 17.336c.124-.084.221-.178.29-.281a.758.758 0 00.13-.376 1.86 1.86 0 00-.038-.54 6.535 6.535 0 00-.205-.768 7.203 7.203 0 01-.222-.89 3.06 3.06 0 01-.035-.77c.023-.235.087-.448.194-.637a1.47 1.47 0 01.472-.494 1.563 1.563 0 011.366-.203c.241.072.473.195.696.368.223.172.427.395.611.669.271.4.423.792.457 1.174a1.95 1.95 0 01-.165 1.044c-.145.31-.357.56-.635.748l-.475-.703a1.29 1.29 0 00.445-.486c.099-.191.133-.403.104-.636-.026-.234-.13-.484-.309-.75-.17-.252-.348-.434-.534-.547a.992.992 0 00-.555-.158c-.182.01-.356.07-.522.182a.828.828 0 00-.261.277c-.057.11-.091.241-.102.394a2.18 2.18 0 00.046.534c.041.203.106.435.193.696.119.36.2.686.243.977.044.29.047.551.011.782a1.46 1.46 0 01-.228.617 1.684 1.684 0 01-.485.482 1.57 1.57 0 01-.679.266c-.235.031-.47.007-.705-.073a2.194 2.194 0 01-.687-.394 3.283 3.283 0 01-.613-.695 3.198 3.198 0 01-.39-.798 2.63 2.63 0 01-.129-.856c.006-.285.07-.554.191-.806.125-.252.321-.468.587-.647l.475.703a1.182 1.182 0 00-.401.425 1.127 1.127 0 00-.127.507c-.002.182.03.365.094.55.068.185.159.363.275.534.166.246.341.432.525.557a1 1 0 00.555.19.912.912 0 00.542-.168zm7.847 9.463l-.635.281-1.409-3.184.634-.28 1.41 3.183zm1.173-4.182l-5.883 2.605-.345-.78 5.882-2.605.346.78zm1.656 3.741l-5.882 2.605-.344-.776 5.883-2.605.343.776zm1.468 13.397l-.395.093a4.303 4.303 0 01-1.307.121c-.4-.03-.757-.124-1.069-.284a2.257 2.257 0 01-.785-.655 2.55 2.55 0 01-.449-.984 2.563 2.563 0 01-.034-1.068c.066-.339.202-.652.41-.94a2.88 2.88 0 01.828-.744 4.11 4.11 0 011.222-.482l.395-.093a4.18 4.18 0 011.303-.116c.402.036.759.135 1.073.297.316.162.579.38.789.654.211.278.359.601.446.971.09.382.102.742.036 1.08a2.228 2.228 0 01-.415.938 2.76 2.76 0 01-.83.736 4.171 4.171 0 01-1.218.476zm-.589-.728l.405-.095a3.94 3.94 0 00.962-.349 2.1 2.1 0 00.644-.5c.161-.193.267-.407.317-.643a1.688 1.688 0 00-.017-.75 1.644 1.644 0 00-.316-.665 1.517 1.517 0 00-.568-.429 2.224 2.224 0 00-.802-.17 3.783 3.783 0 00-1.018.112l-.404.095a3.853 3.853 0 00-.97.355 2.24 2.24 0 00-.646.515 1.57 1.57 0 00-.317.642 1.64 1.64 0 00.015.736c.063.27.169.498.319.683.15.186.339.328.567.425.233.1.501.153.805.16.307.007.649-.034 1.024-.122zm1.463 10.991l-.084-1.717.692-.034.085 1.717c.016.332.082.599.198.8.116.2.271.343.464.428.193.088.41.126.651.114.221-.01.426-.07.615-.176.19-.104.338-.262.446-.473.111-.212.158-.484.141-.817l-.074-1.518-5.729.282-.041-.852 6.425-.316.117 2.37c.023.485-.04.9-.191 1.244a1.79 1.79 0 01-.66.797 1.957 1.957 0 01-.998.31c-.412.02-.768-.049-1.068-.208a1.674 1.674 0 01-.704-.73c-.166-.329-.261-.736-.285-1.221z" fill="#464E2E"/></svg>