<svg width="129" height="25" fill="none" xmlns="http://www.w3.org/2000/svg"><path fill-rule="evenodd" clip-rule="evenodd" d="M65.867 1.004a16.053 16.053 0 00-.88-.024h-7.581v23.2h7.58c.3 0 .593-.009.881-.026v-1.047c-.287.018-.58.027-.88.027h-6.438V2.026h6.438c.3 0 .594.01.88.028v-1.05zM0 .98v23.2h15.358v-1.046H1.144V.98H0zm21.616 22.84a7.62 7.62 0 003.202.687c1.154 0 2.222-.229 3.202-.687a8.058 8.058 0 002.614-1.895 9.007 9.007 0 001.765-2.81 9.221 9.221 0 00.62-3.365 8.905 8.905 0 00-.653-3.399 8.534 8.534 0 00-1.764-2.81 7.844 7.844 0 00-2.614-1.928 7.402 7.402 0 00-3.17-.686 7.544 7.544 0 00-3.17.686 7.845 7.845 0 00-2.614 1.928 9.312 9.312 0 00-1.764 2.81 9.317 9.317 0 00-.621 3.399c0 1.176.207 2.298.62 3.365a9.329 9.329 0 001.733 2.81 8.058 8.058 0 002.614 1.895zm-2.908-4.15c-.632-1.176-.948-2.472-.948-3.888s.316-2.712.948-3.888c.653-1.198 1.514-2.146 2.58-2.843 1.09-.719 2.267-1.078 3.53-1.078a6.32 6.32 0 013.529 1.045c1.067.698 1.917 1.634 2.549 2.81.653 1.177.98 2.473.98 3.889 0 1.394-.327 2.69-.98 3.888-.632 1.177-1.482 2.113-2.55 2.81-1.067.698-2.254 1.046-3.56 1.046a6.468 6.468 0 01-3.53-1.013 7.632 7.632 0 01-2.548-2.777zM37.53 8.17v16.01h1.11V8.169h4.967v-.98h-4.966v-.621c0-1.808.315-3.18.947-4.117.632-.959 1.536-1.438 2.712-1.438.501 0 .98.076 1.438.229.457.152.828.36 1.11.62l.556-.751C45.08.784 44.61.523 44 .327A5.227 5.227 0 0042.17 0c-.958 0-1.786.261-2.483.784-.697.523-1.23 1.275-1.601 2.255-.37.98-.555 2.156-.555 3.529v.62h-2.419v.98h2.419zm15.9 15.52c.305-.173.48-.271.523-.293l-.425-.915c-.044.043-.327.196-.85.457-.5.24-1.11.36-1.83.36a2.438 2.438 0 01-1.502-.49c-.436-.327-.676-.806-.72-1.438V8.169h4.02v-.98h-4.02v-5.85h-1.11v5.85h-2.418v.98h2.418v13.364c0 .588.141 1.1.424 1.536.284.414.665.73 1.144.948.48.217 1.002.326 1.569.326.61 0 1.143-.065 1.6-.196a8.34 8.34 0 001.177-.457z" fill="#464E2E"/><path fill-rule="evenodd" clip-rule="evenodd" d="M65.868 24.154c1.854-.112 3.488-.583 4.902-1.412 1.656-.959 2.93-2.31 3.823-4.052.893-1.743 1.34-3.79 1.34-6.143 0-2.135-.414-4.074-1.242-5.816-.806-1.765-2.015-3.159-3.627-4.183-1.414-.917-3.146-1.432-5.196-1.544v1.05c1.73.11 3.211.559 4.445 1.344 1.46.893 2.57 2.135 3.332 3.725.763 1.59 1.144 3.398 1.144 5.424 0 1.982-.37 3.78-1.11 5.392-.741 1.611-1.841 2.886-3.301 3.823-1.254.786-2.758 1.234-4.51 1.345v1.047zM84 23.82a7.843 7.843 0 003.235.686 8.1 8.1 0 002.908-.523 7.505 7.505 0 002.45-1.47c.698-.632 1.21-1.34 1.536-2.124l-1.013-.261c-.457 1.002-1.23 1.83-2.32 2.483a6.855 6.855 0 01-3.496.948 6.514 6.514 0 01-3.463-.98c-1.046-.654-1.907-1.536-2.582-2.647-.653-1.111-1.035-2.353-1.144-3.725H95.34c.022-.088.033-.175.033-.262v-.261c0-1.612-.37-3.072-1.111-4.379-.74-1.329-1.732-2.385-2.973-3.17-1.22-.805-2.614-1.208-4.183-1.208-1.525 0-2.908.392-4.15 1.176a8.573 8.573 0 00-2.908 3.137c-.719 1.307-1.078 2.756-1.078 4.346 0 1.22.207 2.374.62 3.463a9.752 9.752 0 001.765 2.843 8.896 8.896 0 002.647 1.928zm10.26-8.56H80.08c.087-1.417.446-2.68 1.078-3.791.654-1.111 1.492-1.983 2.516-2.614 1.046-.632 2.2-.948 3.464-.948 1.285 0 2.45.316 3.496.948 1.046.631 1.884 1.503 2.516 2.614.654 1.089 1.024 2.352 1.111 3.79zm6.31 8.593c1.133.435 2.352.653 3.659.653 1.917 0 3.453-.435 4.608-1.307 1.176-.893 1.764-2.102 1.764-3.627 0-.98-.261-1.742-.784-2.287-.523-.545-1.274-.98-2.255-1.307-.958-.349-2.102-.686-3.431-1.013a40.101 40.101 0 01-2.483-.719c-.653-.24-1.144-.555-1.47-.947-.327-.393-.49-.948-.49-1.667 0-.893.228-1.601.686-2.124.457-.544 1.056-.947 1.797-1.209a7.22 7.22 0 012.418-.392c1.067 0 2.048.174 2.941.523.915.348 1.612.86 2.091 1.536l.719-.621c-.436-.697-1.144-1.275-2.124-1.732-.98-.458-2.146-.686-3.496-.686-1.111 0-2.135.174-3.072.523-.915.348-1.656.882-2.222 1.6-.545.698-.817 1.613-.817 2.745 0 .894.196 1.59.588 2.092.393.5.97.904 1.732 1.209.784.283 1.765.577 2.941.882 1.198.283 2.211.566 3.039.85.849.26 1.492.61 1.928 1.045.457.436.686 1.046.686 1.83 0 1.198-.49 2.135-1.471 2.81-.98.675-2.265 1.013-3.855 1.013-1.155 0-2.211-.207-3.17-.62-.958-.415-1.895-1.057-2.81-1.929l-.588.785c.85.936 1.83 1.633 2.941 2.09zm19.494-9.084l6.928 9.41h1.274L120.85 14.05l7.221-6.796h-1.34l-11.012 10.129V.326h-1.11V24.18h1.11v-5.457l4.346-3.954z" fill="#ACB992"/></svg>