<svg width="129" height="25" fill="none" xmlns="http://www.w3.org/2000/svg"><path fill-rule="evenodd" clip-rule="evenodd" d="M65.965 1.004c-.287-.016-.58-.024-.88-.024h-7.581v23.2h7.58c.3 0 .593-.009.881-.026v-1.047c-.287.018-.58.027-.88.027h-6.437V2.026h6.437c.3 0 .594.01.88.028v-1.05zM.098.98v23.2h15.358v-1.046H1.242V.98H.098zm21.616 22.84a7.62 7.62 0 003.202.687c1.155 0 2.222-.229 3.202-.687a8.058 8.058 0 002.614-1.895 9.005 9.005 0 001.765-2.81 9.221 9.221 0 00.62-3.365 8.905 8.905 0 00-.653-3.399 8.533 8.533 0 00-1.764-2.81 7.844 7.844 0 00-2.614-1.928 7.402 7.402 0 00-3.17-.686 7.545 7.545 0 00-3.17.686 7.844 7.844 0 00-2.613 1.928 9.31 9.31 0 00-1.765 2.81 9.317 9.317 0 00-.62 3.399c0 1.176.206 2.298.62 3.365a9.327 9.327 0 001.732 2.81 8.058 8.058 0 002.614 1.895zm-2.908-4.15c-.632-1.176-.948-2.472-.948-3.888s.316-2.712.948-3.888c.653-1.198 1.514-2.146 2.581-2.843 1.09-.719 2.266-1.078 3.53-1.078a6.32 6.32 0 013.528 1.045c1.067.698 1.917 1.634 2.549 2.81.653 1.177.98 2.473.98 3.889 0 1.394-.327 2.69-.98 3.888-.632 1.177-1.482 2.113-2.549 2.81-1.067.698-2.255 1.046-3.562 1.046a6.468 6.468 0 01-3.529-1.013 7.632 7.632 0 01-2.548-2.777zm18.823-11.5v16.01h1.11V8.169h4.967v-.98H38.74v-.621c0-1.808.316-3.18.947-4.117.632-.959 1.536-1.438 2.712-1.438.501 0 .98.076 1.438.229.457.152.828.36 1.111.62l.556-.751c-.327-.327-.796-.588-1.406-.784A5.227 5.227 0 0042.268 0c-.958 0-1.786.261-2.483.784-.697.523-1.23 1.275-1.6 2.255-.371.98-.556 2.156-.556 3.529v.62H35.21v.98h2.418zm15.9 15.52c.305-.173.48-.271.523-.293l-.425-.915c-.043.043-.327.196-.85.457-.5.24-1.11.36-1.83.36a2.438 2.438 0 01-1.502-.49c-.436-.327-.676-.806-.72-1.438V8.169h4.02v-.98h-4.02v-5.85h-1.11v5.85h-2.418v.98h2.418v13.364c0 .588.142 1.1.425 1.536.283.414.664.73 1.143.948.48.217 1.002.326 1.569.326.61 0 1.143-.065 1.6-.196.48-.152.872-.305 1.177-.457z" fill="#fff"/><path fill-rule="evenodd" clip-rule="evenodd" d="M65.966 24.154c1.854-.112 3.488-.582 4.902-1.412 1.656-.958 2.93-2.309 3.823-4.052.893-1.742 1.34-3.79 1.34-6.143 0-2.135-.414-4.073-1.242-5.816-.806-1.764-2.015-3.159-3.627-4.182-1.414-.917-3.146-1.432-5.196-1.545v1.05c1.73.111 3.212.56 4.445 1.344 1.46.893 2.57 2.135 3.333 3.725.762 1.59 1.143 3.398 1.143 5.424 0 1.983-.37 3.78-1.11 5.392-.741 1.612-1.841 2.886-3.3 3.823-1.255.786-2.759 1.235-4.511 1.345v1.047zm18.133-.334a7.841 7.841 0 003.235.687 8.098 8.098 0 002.908-.523 7.504 7.504 0 002.45-1.47c.698-.632 1.21-1.34 1.536-2.124l-1.012-.262c-.458 1.002-1.231 1.83-2.32 2.483a6.854 6.854 0 01-3.497.948 6.514 6.514 0 01-3.463-.98c-1.046-.654-1.907-1.536-2.582-2.647-.653-1.11-1.034-2.353-1.143-3.725h15.226c.022-.087.033-.174.033-.261v-.262c0-1.612-.37-3.071-1.11-4.378-.742-1.33-1.733-2.386-2.974-3.17-1.22-.806-2.614-1.209-4.183-1.209-1.525 0-2.908.392-4.15 1.176a8.573 8.573 0 00-2.908 3.137c-.719 1.307-1.078 2.756-1.078 4.346 0 1.22.207 2.375.62 3.464a9.752 9.752 0 001.765 2.843A8.894 8.894 0 0084.1 23.82zm10.26-8.56H80.178c.087-1.416.447-2.68 1.078-3.79.654-1.112 1.492-1.983 2.516-2.615 1.046-.632 2.2-.948 3.464-.948 1.285 0 2.45.316 3.496.948 1.046.632 1.884 1.503 2.516 2.614.654 1.09 1.024 2.353 1.111 3.79zm6.31 8.593c1.133.436 2.353.654 3.66.654 1.917 0 3.452-.436 4.607-1.307 1.176-.893 1.764-2.102 1.764-3.627 0-.98-.261-1.743-.784-2.288-.523-.544-1.274-.98-2.255-1.307-.958-.348-2.102-.686-3.43-1.013a40.032 40.032 0 01-2.484-.719c-.653-.24-1.143-.555-1.47-.947-.327-.392-.49-.948-.49-1.667 0-.893.228-1.6.686-2.123.457-.545 1.056-.948 1.797-1.21a7.22 7.22 0 012.418-.392c1.067 0 2.048.175 2.941.523.915.349 1.612.86 2.091 1.536l.719-.62c-.436-.698-1.144-1.275-2.124-1.733-.98-.457-2.146-.686-3.496-.686-1.111 0-2.135.174-3.072.523-.915.348-1.655.882-2.222 1.601-.544.697-.817 1.612-.817 2.745 0 .893.196 1.59.588 2.091.393.501.97.904 1.732 1.209a34.16 34.16 0 002.941.882c1.198.284 2.211.567 3.039.85.849.261 1.492.61 1.928 1.046.457.435.686 1.045.686 1.83 0 1.197-.49 2.134-1.47 2.81-.981.675-2.266 1.012-3.856 1.012-1.155 0-2.211-.207-3.17-.62-.958-.414-1.895-1.057-2.81-1.928l-.588.784c.85.937 1.83 1.634 2.941 2.091zm19.494-9.084l6.928 9.41h1.274l-7.417-10.129 7.221-6.796h-1.34l-11.011 10.13V.326h-1.111V24.18h1.111v-5.457l4.345-3.954z" fill="#464E2E"/></svg>